0
SECTION
2
HEADER
9
$INSUNITS
70
4
9
$ACADVER
1
AC1014
9
$HANDSEED
5
FFFF
0
ENDSEC
0
SECTION
2
TABLES
0
TABLE
2
VPORT
5
8
100
AcDbSymbolTable
0
ENDTAB
0
TABLE
2
LTYPE
5
5
100
AcDbSymbolTable
0
LTYPE
5
14
100
AcDbSymbolTableRecord
100
AcDbLinetypeTableRecord
2
BYBLOCK
70
0
0
LTYPE
5
15
100
AcDbSymbolTableRecord
100
AcDbLinetypeTableRecord
2
BYLAYER
70
0
0
LTYPE
5
16
100
AcDbSymbolTableRecord
100
AcDbLinetypeTableRecord
2
DASHED
70
0
3
Dashed __ __ __ __ __ __ __ __ __ __ __ __ __ _
72
65
73
2
40
0.75
49
0.5
74
0
49
-0.25
74
0
0
ENDTAB
0
TABLE
2
LAYER
5
2
100
AcDbSymbolTable
70
2
0
LAYER
5
50
100
AcDbSymbolTableRecord
100
AcDbLayerTableRecord
2
0
70
0
62
7
6
CONTINUOUS
0
ENDTAB
0
TABLE
2
STYLE
5
3
100
AcDbSymbolTable
70
1
0
STYLE
5
11
100
AcDbSymbolTableRecord
100
AcDbTextStyleTableRecord
2
STANDARD
70
0
0
ENDTAB
0
TABLE
2
VIEW
5
6
100
AcDbSymbolTable
70
0
0
ENDTAB
0
TABLE
2
UCS
5
7
100
AcDbSymbolTable
70
0
0
ENDTAB
0
TABLE
2
APPID
5
9
100
AcDbSymbolTable
70
2
0
APPID
5
12
100
AcDbSymbolTableRecord
100
AcDbRegAppTableRecord
2
ACAD
70
0
0
ENDTAB
0
TABLE
2
DIMSTYLE
5
A
100
AcDbSymbolTable
70
1
0
ENDTAB
0
TABLE
2
BLOCK_RECORD
5
1
100
AcDbSymbolTable
70
1
0
BLOCK_RECORD
5
1F
100
AcDbSymbolTableRecord
100
AcDbBlockTableRecord
2
*MODEL_SPACE
0
BLOCK_RECORD
5
1B
100
AcDbSymbolTableRecord
100
AcDbBlockTableRecord
2
*PAPER_SPACE
0
ENDTAB
0
ENDSEC
0
SECTION
2
BLOCKS
0
BLOCK
5
20
100
AcDbEntity
100
AcDbBlockBegin
2
*MODEL_SPACE
0
ENDBLK
5
21
100
AcDbEntity
100
AcDbBlockEnd
0
BLOCK
5
1C
100
AcDbEntity
100
AcDbBlockBegin
2
*PAPER_SPACE
0
ENDBLK
5
1D
100
AcDbEntity
100
AcDbBlockEnd
0
ENDSEC
0
SECTION
2
ENTITIES
0
POINT
5
100
100
AcDbEntity
8
0
100
AcDbPoint
10
0
20
0
30
0
0
LINE
5
101
100
AcDbEntity
8
0
100
AcDbLine
10
0
20
52
30
0
11
0
21
0
31
0
6
DASHED
0
LINE
5
102
100
AcDbEntity
8
0
100
AcDbLine
10
0
20
0
30
0
11
-51.999999999999993
21
-1.2742600542116023e-14
31
0
6
DASHED
0
LINE
5
103
100
AcDbEntity
8
0
100
AcDbLine
10
-51.999999999999993
20
14.500000000000096
30
0
11
-51.999999999999993
21
-14.500000000000096
31
0
6
DASHED
0
LINE
5
104
100
AcDbEntity
8
0
100
AcDbLine
10
-14.500000000000007
20
52
30
0
11
14.500000000000007
21
52
31
0
6
DASHED
0
LWPOLYLINE
5
105
100
AcDbEntity
8
0
100
AcDbPolyline
90
4
70
1
43
0.0
10
-14.20000000000001
20
-4.3798376104722692e-15
10
-14.20000000000001
20
14.200000000000006
10
0
20
14.200000000000008
10
0
20
0
0
LINE
5
106
100
AcDbEntity
8
0
100
AcDbLine
10
-14.5
20
14.500000000000007
30
0
11
14.5
21
14.500000000000007
31
0
6
DASHED
0
LINE
5
107
100
AcDbEntity
8
0
100
AcDbLine
10
-4.9999999999998552
20
14.200000000000008
30
0
11
-5.0000000000056595
21
18.200000000000006
31
0
0
LINE
5
108
100
AcDbEntity
8
0
100
AcDbLine
10
-5.0000000000056595
20
18.200000000000006
30
0
11
0
21
18.200000000000006
31
0
0
LWPOLYLINE
5
109
100
AcDbEntity
8
0
100
AcDbPolyline
90
4
70
1
43
0.0
10
-51.699999999999989
20
-1.583479751478434e-14
10
-51.699999999999989
20
14.200000000000079
10
-23.29999999999999
20
14.200000000000079
10
-23.299999999999997
20
-7.1363787639163461e-15
0
LINE
5
110
100
AcDbEntity
8
0
100
AcDbLine
10
-42.499999999999993
20
14.200000000000079
30
0
11
-42.499999999999993
21
18.200000000000081
31
0
0
LINE
5
111
100
AcDbEntity
8
0
100
AcDbLine
10
-42.499999999999993
20
18.200000000000081
30
0
11
-32.499999999999993
21
18.200000000000081
31
0
0
LINE
5
112
100
AcDbEntity
8
0
100
AcDbLine
10
-32.499999999999993
20
18.200000000000081
30
0
11
-32.499999999999986
21
14.200000000000079
31
0
0
LINE
5
113
100
AcDbEntity
8
0
100
AcDbLine
10
-37.499999999999993
20
18.200000000000081
30
0
11
-37.499999999999993
21
14.200000000000079
31
0
6
DASHED
0
LINE
5
114
100
AcDbEntity
8
0
100
AcDbLine
10
-14.20000000000001
20
4.9999999999999991
30
0
11
-18.20000000000001
21
4.9999999999999991
31
0
0
LINE
5
115
100
AcDbEntity
8
0
100
AcDbLine
10
-18.20000000000001
20
4.9999999999999991
30
0
11
-18.20000000000001
21
-5.6049670120029713e-15
31
0
0
LWPOLYLINE
5
116
100
AcDbEntity
8
0
100
AcDbPolyline
90
4
70
1
43
0.0
10
0
20
51.700000000000003
10
-14.20000000000001
20
51.700000000000003
10
-14.20000000000001
20
23.299999999999997
10
0
20
23.299999999999997
0
LINE
5
117
100
AcDbEntity
8
0
100
AcDbLine
10
-4.9999999999999991
20
51.700000000000003
30
0
11
-4.9999999999999991
21
55.700000000000003
31
0
0
LINE
5
118
100
AcDbEntity
8
0
100
AcDbLine
10
-4.9999999999999991
20
55.700000000000003
30
0
11
4.8985871965894217e-16
21
55.700000000000003
31
0
0
LINE
5
119
100
AcDbEntity
8
0
100
AcDbLine
10
4.8985871965894217e-16
20
55.700000000000003
30
0
11
0
21
51.700000000000003
31
0
0
LINE
5
120
100
AcDbEntity
8
0
100
AcDbLine
10
-14.20000000000001
20
42.5
30
0
11
-18.20000000000001
21
42.5
31
0
0
LINE
5
121
100
AcDbEntity
8
0
100
AcDbLine
10
-18.20000000000001
20
42.5
30
0
11
-18.20000000000001
21
32.5
31
0
0
LINE
5
122
100
AcDbEntity
8
0
100
AcDbLine
10
-18.20000000000001
20
32.5
30
0
11
-14.20000000000001
21
32.5
31
0
0
LINE
5
123
100
AcDbEntity
8
0
100
AcDbLine
10
-14.20000000000001
20
37.5
30
0
11
-18.20000000000001
21
37.5
31
0
6
DASHED
0
LINE
5
124
100
AcDbEntity
8
0
100
AcDbLine
10
-5
20
23.299999999999997
30
0
11
-5
21
19.299999999999997
31
0
0
LINE
5
125
100
AcDbEntity
8
0
100
AcDbLine
10
-5
20
19.299999999999997
30
0
11
0
21
19.299999999999997
31
0
0
LINE
5
126
100
AcDbEntity
8
0
100
AcDbLine
10
0
20
23.299999999999997
30
0
11
0
21
19.299999999999997
31
0
0
LINE
5
127
100
AcDbEntity
8
0
100
AcDbLine
10
-51.699999999999989
20
4.9999999999999742
30
0
11
-55.699999999999996
21
4.9999999999999742
31
0
0
LINE
5
128
100
AcDbEntity
8
0
100
AcDbLine
10
-55.699999999999996
20
4.9999999999999742
30
0
11
-55.699999999999996
21
-2.5697608408999687e-14
31
0
0
LINE
5
129
100
AcDbEntity
8
0
100
AcDbLine
10
-55.699999999999996
20
-2.5697608408999687e-14
30
0
11
-51.699999999999989
21
-1.583479751478434e-14
31
0
0
LINE
5
130
100
AcDbEntity
8
0
100
AcDbLine
10
-23.299999999999997
20
4.9999999999999991
30
0
11
-19.29999999999999
21
4.9999999999999991
31
0
0
LINE
5
131
100
AcDbEntity
8
0
100
AcDbLine
10
-19.29999999999999
20
4.9999999999999991
30
0
11
-19.29999999999999
21
-5.9112493623856401e-15
31
0
0
LINE
5
132
100
AcDbEntity
8
0
100
AcDbLine
10
-23.299999999999997
20
-7.1363787639163461e-15
30
0
11
-19.29999999999999
21
-5.9112493623856401e-15
31
0
0
LINE
5
133
100
AcDbEntity
8
0
100
AcDbLine
10
-18.20000000000001
20
-5.6049670120029713e-15
30
0
11
-14.20000000000001
21
-4.3798376104722692e-15
31
0
0
LINE
5
134
100
AcDbEntity
8
0
100
AcDbLine
10
0
20
18.200000000000006
30
0
11
0
21
14.200000000000008
31
0
0
LWPOLYLINE
5
135
100
AcDbEntity
8
0
100
AcDbPolyline
90
5
70
1
43
0.0
10
-44.047309298280169
20
51.700000491738308
10
-23.299999999999986
20
51.700000491738308
10
-23.299999999999983
20
23.299999999999997
10
-51.700000491738301
20
23.29999999999999
10
-51.700000491738301
20
44.047309298280183
0
LINE
5
136
100
AcDbEntity
8
0
100
AcDbLine
10
-44.171573366992121
20
52.000000491738312
30
0
11
-22.999999999999989
21
52.000000491738312
31
0
6
DASHED
0
LINE
5
137
100
AcDbEntity
8
0
100
AcDbLine
10
-52.000000491738305
20
23
30
0
11
-52.000000491738305
21
44.171573366992106
31
0
6
DASHED
0
LINE
5
138
100
AcDbEntity
8
0
100
AcDbLine
10
-52.000000491738305
20
44.171573366992106
30
0
11
-44.171573366992121
21
52.000000491738312
31
0
6
DASHED
0
LINE
5
139
100
AcDbEntity
8
0
100
AcDbLine
10
-32.500000245869131
20
51.700000491738308
30
0
11
-32.500000245869131
21
55.700000491738315
31
0
0
LINE
5
140
100
AcDbEntity
8
0
100
AcDbLine
10
-32.500000245869131
20
55.700000491738315
30
0
11
-42.500000245869138
21
55.700000491738315
31
0
0
LINE
5
141
100
AcDbEntity
8
0
100
AcDbLine
10
-42.500000245869138
20
55.700000491738315
30
0
11
-42.500000245869138
21
51.700000491738308
31
0
0
LINE
5
142
100
AcDbEntity
8
0
100
AcDbLine
10
-23.299999999999983
20
42.50000024586916
30
0
11
-19.299999999999983
21
42.50000024586916
31
0
0
LINE
5
143
100
AcDbEntity
8
0
100
AcDbLine
10
-19.299999999999983
20
42.50000024586916
30
0
11
-19.299999999999983
21
32.50000024586916
31
0
0
LINE
5
144
100
AcDbEntity
8
0
100
AcDbLine
10
-19.299999999999983
20
32.50000024586916
30
0
11
-23.299999999999983
21
32.50000024586916
31
0
0
LINE
5
145
100
AcDbEntity
8
0
100
AcDbLine
10
-32.500000245869145
20
23.29999999999999
30
0
11
-32.500000245869145
21
19.29999999999999
31
0
0
LINE
5
146
100
AcDbEntity
8
0
100
AcDbLine
10
-32.500000245869145
20
19.29999999999999
30
0
11
-42.500000245869145
21
19.29999999999999
31
0
0
LINE
5
147
100
AcDbEntity
8
0
100
AcDbLine
10
-42.500000245869145
20
19.29999999999999
30
0
11
-42.500000245869145
21
23.29999999999999
31
0
0
LINE
5
148
100
AcDbEntity
8
0
100
AcDbLine
10
-51.700000491738301
20
42.500000245869167
30
0
11
-55.700000491738308
21
42.500000245869167
31
0
0
LINE
5
149
100
AcDbEntity
8
0
100
AcDbLine
10
-55.700000491738308
20
42.500000245869167
30
0
11
-55.700000491738308
21
32.500000245869167
31
0
0
LINE
5
150
100
AcDbEntity
8
0
100
AcDbLine
10
-55.700000491738308
20
32.500000245869167
30
0
11
-51.700000491738301
21
32.500000245869167
31
0
0
LINE
5
151
100
AcDbEntity
8
0
100
AcDbLine
10
-37.500000245869131
20
55.700000491738315
30
0
11
-37.500000245869145
21
23.29999999999999
31
0
6
DASHED
0
LINE
5
152
100
AcDbEntity
8
0
100
AcDbLine
10
-37.500000245869145
20
19.29999999999999
30
0
11
-37.500000245869145
21
23.29999999999999
31
0
6
DASHED
0
LINE
5
153
100
AcDbEntity
8
0
100
AcDbLine
10
-55.700000491738308
20
37.500000245869167
30
0
11
-23.299999999999983
21
37.500000245869145
31
0
6
DASHED
0
LINE
5
154
100
AcDbEntity
8
0
100
AcDbLine
10
-23.299999999999983
20
37.500000245869145
30
0
11
-19.299999999999983
21
37.50000024586916
31
0
6
DASHED
0
LWPOLYLINE
5
155
100
AcDbEntity
8
0
100
AcDbPolyline
90
5
70
1
43
0.0
10
-43.218882173533977
20
49.700000491738308
10
-25.299999999999994
20
49.700000491738308
10
-25.29999999999999
20
25.300000000000008
10
-49.700000491738301
20
25.300000000000011
10
-49.700000491738301
20
43.218882173533984
0
LINE
5
156
100
AcDbEntity
8
0
100
AcDbLine
10
-49.699999999999989
20
-1.5222232814018985e-14
30
0
11
-49.699999999999989
21
12.200000000000079
31
0
0
LINE
5
157
100
AcDbEntity
8
0
100
AcDbLine
10
-49.699999999999989
20
12.200000000000079
30
0
11
-25.299999999999994
21
12.200000000000079
31
0
0
LINE
5
158
100
AcDbEntity
8
0
100
AcDbLine
10
-25.299999999999994
20
12.200000000000079
30
0
11
-25.299999999999997
21
-7.7489434646816996e-15
31
0
0
LINE
5
159
100
AcDbEntity
8
0
100
AcDbLine
10
0
20
49.699999999999996
30
0
11
-12.20000000000001
21
49.699999999999996
31
0
0
LINE
5
160
100
AcDbEntity
8
0
100
AcDbLine
10
-12.20000000000001
20
49.699999999999996
30
0
11
-12.20000000000001
21
25.299999999999997
31
0
0
LINE
5
161
100
AcDbEntity
8
0
100
AcDbLine
10
-12.20000000000001
20
25.299999999999997
30
0
11
0
21
25.299999999999997
31
0
0
LINE
5
162
100
AcDbEntity
8
0
100
AcDbLine
10
-12.20000000000001
20
-3.7366446746686491e-15
30
0
11
-12.20000000000001
21
12.200000000000006
31
0
0
LINE
5
163
100
AcDbEntity
8
0
100
AcDbLine
10
-12.20000000000001
20
12.200000000000006
30
0
11
0
21
12.200000000000008
31
0
0
LINE
5
164
100
AcDbEntity
8
0
100
AcDbLine
10
-22.999999999999993
20
14.500000000000064
30
0
11
-22.999999999999993
21
-14.500000000000064
31
0
6
DASHED
0
LINE
5
165
100
AcDbEntity
8
0
100
AcDbLine
10
-51.999999999999993
20
14.500000000000096
30
0
11
-22.999999999999993
21
14.500000000000064
31
0
6
DASHED
0
LINE
5
166
100
AcDbEntity
8
0
100
AcDbLine
10
-22.999999999999989
20
52.000000491738312
30
0
11
-22.999999999999989
21
23
31
0
6
DASHED
0
LINE
5
167
100
AcDbEntity
8
0
100
AcDbLine
10
-14.500000000000014
20
23
30
0
11
14.500000000000014
21
23
31
0
6
DASHED
0
LINE
5
168
100
AcDbEntity
8
0
100
AcDbLine
10
-14.500000000000014
20
23
30
0
11
-14.500000000000007
21
52
31
0
6
DASHED
0
CIRCLE
5
169
100
AcDbEntity
8
0
100
AcDbCircle
10
-67
20
67
30
0
40
12.072368649826934
210
0
220
0
230
1
0
CIRCLE
5
170
100
AcDbEntity
8
0
100
AcDbCircle
10
-67
20
67
30
0
40
12.372368649826937
210
0
220
-0
230
1
6
DASHED
0
CIRCLE
5
171
100
AcDbEntity
8
0
100
AcDbCircle
10
-67
20
67
30
0
40
8.5723686498321339
210
0
220
0
230
1
0
LINE
5
172
100
AcDbEntity
8
0
100
AcDbLine
10
-61.999999999998174
20
56.011729671261662
30
0
11
-61.999999999999893
21
50.927631350173726
31
0
0
LINE
5
173
100
AcDbEntity
8
0
100
AcDbLine
10
-61.999999999999893
20
50.927631350173726
30
0
11
-71.99999999999828
21
50.927631350172334
31
0
0
LINE
5
174
100
AcDbEntity
8
0
100
AcDbLine
10
-71.99999999999828
20
50.927631350172334
30
0
11
-71.999999999998153
21
56.011729671261641
31
0
0
LINE
5
175
100
AcDbEntity
8
0
100
AcDbLine
10
-66.999999999999091
20
54.927631350173058
30
0
11
-66.999999999999091
21
50.927631350173058
31
0
6
DASHED
0
LINE
5
176
100
AcDbEntity
8
0
100
AcDbLine
10
-56.011729671263424
20
72.000000000008868
30
0
11
-50.927631350173066
21
72.000000000007006
31
0
0
LINE
5
177
100
AcDbEntity
8
0
100
AcDbLine
10
-50.927631350173066
20
72.000000000007006
30
0
11
-50.927631350173066
21
62.000000000008725
31
0
0
LINE
5
178
100
AcDbEntity
8
0
100
AcDbLine
10
-50.927631350173066
20
62.000000000008725
30
0
11
-56.011729671263424
21
62.00000000000685
31
0
0
LINE
5
179
100
AcDbEntity
8
0
100
AcDbLine
10
-50.927631350173066
20
67.000000000007859
30
0
11
-54.927631350173066
21
67.000000000007859
31
0
6
DASHED
0
LINE
5
180
100
AcDbEntity
8
0
100
AcDbLine
10
-61.999999999997861
20
77.988270328738196
30
0
11
-62.000000000000021
21
83.072368649832114
31
0
0
LINE
5
181
100
AcDbEntity
8
0
100
AcDbLine
10
-62.000000000000021
20
83.072368649832114
30
0
11
-72.000000000000014
21
83.072368649832114
31
0
0
LINE
5
182
100
AcDbEntity
8
0
100
AcDbLine
10
-72.000000000000014
20
83.072368649832114
30
0
11
-72.000000000002174
21
77.988270328738196
31
0
0
LINE
5
183
100
AcDbEntity
8
0
100
AcDbLine
10
-66.999999999993719
20
83.072368649826927
30
0
11
-66.999999999993719
21
79.072368649826942
31
0
6
DASHED
0
LINE
5
184
100
AcDbEntity
8
0
100
AcDbLine
10
-77.988270328732781
20
61.999999999998501
30
0
11
-83.072368649826927
21
61.999999999999993
31
0
0
LINE
5
185
100
AcDbEntity
8
0
100
AcDbLine
10
-83.072368649826927
20
61.999999999999993
30
0
11
-83.072368649826927
21
72
31
0
0
LINE
5
186
100
AcDbEntity
8
0
100
AcDbLine
10
-83.072368649826927
20
72
30
0
11
-77.988270328732796
21
72.000000000001478
31
0
0
LINE
5
187
100
AcDbEntity
8
0
100
AcDbLine
10
-83.072368649826927
20
67
30
0
11
-79.072368649826942
21
67
31
0
6
DASHED
0
CIRCLE
5
188
100
AcDbEntity
8
0
100
AcDbCircle
10
-67
20
67
30
0
40
10.822368649832136
210
0
220
0
230
1
0
LINE
5
189
100
AcDbEntity
8
0
100
AcDbLine
10
-74.652570260797035
20
59.347429739203022
30
0
11
-73.591910089017219
21
60.408089910982817
31
0
6
DASHED
0
LINE
5
190
100
AcDbEntity
8
0
100
AcDbLine
10
-73.591910089017219
20
60.408089910982817
30
0
11
-67
21
67
31
0
6
DASHED
0
CIRCLE
5
191
100
AcDbEntity
8
0
100
AcDbCircle
10
-67
20
67
30
0
40
9.3223686498321339
210
0
220
0
230
1
0
LINE
5
192
100
AcDbEntity
8
0
100
AcDbLine
10
-73.513064039558742
20
58.356872093421487
30
0
11
-72.610341504830672
21
59.554825358492423
31
0
0
LINE
5
193
100
AcDbEntity
8
0
100
AcDbLine
10
-67
20
67
30
0
11
-72.610341504830672
21
59.554825358492423
31
0
6
DASHED
0
LINE
5
194
100
AcDbEntity
8
0
100
AcDbLine
10
-75.643127906578528
20
60.486935960441279
30
0
11
-74.445174641507592
21
61.38965849516935
31
0
0
LINE
5
195
100
AcDbEntity
8
0
100
AcDbLine
10
-67
20
67
30
0
11
-74.445174641507592
21
61.38965849516935
31
0
6
DASHED
0
LINE
5
196
100
AcDbEntity
8
0
100
AcDbLine
10
-70.878390062263691
20
56.896448460179776
30
0
11
-70.340838137945752
21
58.296819099925571
31
0
0
LINE
5
197
100
AcDbEntity
8
0
100
AcDbLine
10
-70.340838137945752
20
58.296819099925571
30
0
11
-67
21
67
31
0
6
DASHED
0
LINE
5
198
100
AcDbEntity
8
0
100
AcDbLine
10
-67
20
67
30
0
11
-60.40808991098281
21
73.591910089017176
31
0
6
DASHED
0
LINE
5
199
100
AcDbEntity
8
0
100
AcDbLine
10
-60.40808991098281
20
73.591910089017176
30
0
11
-59.347429739202994
21
74.652570260796992
31
0
6
DASHED
0
LINE
5
200
100
AcDbEntity
8
0
100
AcDbLine
10
-67
20
67
30
0
11
-59.554825358492415
21
72.610341504830657
31
0
6
DASHED
0
LINE
5
201
100
AcDbEntity
8
0
100
AcDbLine
10
-59.554825358492415
20
72.610341504830657
30
0
11
-58.356872093421472
21
73.513064039558728
31
0
0
LINE
5
202
100
AcDbEntity
8
0
100
AcDbLine
10
-67
20
67
30
0
11
-61.38965849516935
21
74.445174641507577
31
0
6
DASHED
0
LINE
5
203
100
AcDbEntity
8
0
100
AcDbLine
10
-60.486935960441279
20
75.643127906578513
30
0
11
-61.38965849516935
21
74.445174641507577
31
0
0
LINE
5
204
100
AcDbEntity
8
0
100
AcDbLine
10
-67
20
67
30
0
11
-63.659161862054262
21
75.703180900074415
31
0
6
DASHED
0
LINE
5
205
100
AcDbEntity
8
0
100
AcDbLine
10
-63.659161862054262
20
75.703180900074415
30
0
11
-63.121609937736309
21
77.103551539820231
31
0
0
ENDSEC
0
SECTION
2
OBJECTS
0
DICTIONARY
5
C
100
AcDbDictionary
3
ACAD_GROUP
350
D
3
ACAD_MLINESTYLE
350
17
0
DICTIONARY
5
D
100
AcDbDictionary
0
DICTIONARY
5
1A
330
C
100
AcDbDictionary
0
DICTIONARY
5
17
100
AcDbDictionary
0
ENDSEC
0
EOF
