0
SECTION
2
HEADER
9
$INSUNITS
70
4
9
$ACADVER
1
AC1014
9
$HANDSEED
5
FFFF
0
ENDSEC
0
SECTION
2
TABLES
0
TABLE
2
VPORT
5
8
100
AcDbSymbolTable
0
ENDTAB
0
TABLE
2
LTYPE
5
5
100
AcDbSymbolTable
0
LTYPE
5
14
100
AcDbSymbolTableRecord
100
AcDbLinetypeTableRecord
2
BYBLOCK
70
0
0
LTYPE
5
15
100
AcDbSymbolTableRecord
100
AcDbLinetypeTableRecord
2
BYLAYER
70
0
0
LTYPE
5
16
100
AcDbSymbolTableRecord
100
AcDbLinetypeTableRecord
2
DASHED
70
0
3
Dashed __ __ __ __ __ __ __ __ __ __ __ __ __ _
72
65
73
2
40
0.75
49
0.5
74
0
49
-0.25
74
0
0
ENDTAB
0
TABLE
2
LAYER
5
2
100
AcDbSymbolTable
70
2
0
LAYER
5
50
100
AcDbSymbolTableRecord
100
AcDbLayerTableRecord
2
0
70
0
62
7
6
CONTINUOUS
0
ENDTAB
0
TABLE
2
STYLE
5
3
100
AcDbSymbolTable
70
1
0
STYLE
5
11
100
AcDbSymbolTableRecord
100
AcDbTextStyleTableRecord
2
STANDARD
70
0
0
ENDTAB
0
TABLE
2
VIEW
5
6
100
AcDbSymbolTable
70
0
0
ENDTAB
0
TABLE
2
UCS
5
7
100
AcDbSymbolTable
70
0
0
ENDTAB
0
TABLE
2
APPID
5
9
100
AcDbSymbolTable
70
2
0
APPID
5
12
100
AcDbSymbolTableRecord
100
AcDbRegAppTableRecord
2
ACAD
70
0
0
ENDTAB
0
TABLE
2
DIMSTYLE
5
A
100
AcDbSymbolTable
70
1
0
ENDTAB
0
TABLE
2
BLOCK_RECORD
5
1
100
AcDbSymbolTable
70
1
0
BLOCK_RECORD
5
1F
100
AcDbSymbolTableRecord
100
AcDbBlockTableRecord
2
*MODEL_SPACE
0
BLOCK_RECORD
5
1B
100
AcDbSymbolTableRecord
100
AcDbBlockTableRecord
2
*PAPER_SPACE
0
ENDTAB
0
ENDSEC
0
SECTION
2
BLOCKS
0
BLOCK
5
20
100
AcDbEntity
100
AcDbBlockBegin
2
*MODEL_SPACE
0
ENDBLK
5
21
100
AcDbEntity
100
AcDbBlockEnd
0
BLOCK
5
1C
100
AcDbEntity
100
AcDbBlockBegin
2
*PAPER_SPACE
0
ENDBLK
5
1D
100
AcDbEntity
100
AcDbBlockEnd
0
ENDSEC
0
SECTION
2
ENTITIES
0
POINT
5
100
100
AcDbEntity
8
0
100
AcDbPoint
10
0
20
0
30
0
0
LWPOLYLINE
5
101
100
AcDbEntity
8
0
100
AcDbPolyline
90
8
70
1
43
0.0
10
65.750000000023107
20
90.000000000004434
10
-65.750000000023107
20
90.000000000004434
10
-89.999999999998792
20
65.750000000028749
10
-89.999999999998792
20
-65.750000000028749
10
-65.750000000023107
20
-90.000000000004434
10
65.750000000023107
20
-90.000000000004434
10
89.999999999998792
20
-65.750000000028749
10
89.999999999998792
20
65.750000000028749
0
LWPOLYLINE
5
102
100
AcDbEntity
8
0
100
AcDbPolyline
90
4
70
1
43
0.0
10
-14.500000000000007
20
52
10
14.500000000000007
20
52
10
14.500000000000014
20
23
10
-14.500000000000014
20
23
0
LWPOLYLINE
5
103
100
AcDbEntity
8
0
100
AcDbPolyline
90
4
70
1
43
0.0
10
14.500000000000007
20
-52
10
-14.500000000000007
20
-52
10
-14.500000000000014
20
-23
10
14.500000000000014
20
-23
0
CIRCLE
5
104
100
AcDbEntity
8
0
100
AcDbCircle
10
67
20
-67
30
0
40
12.372368649826937
210
0
220
-0
230
1
0
LWPOLYLINE
5
105
100
AcDbEntity
8
0
100
AcDbPolyline
90
5
70
1
43
0.0
10
44.171573366992121
20
-52.000000491738312
10
22.999999999999989
20
-52.000000491738312
10
22.999999999999989
20
-23
10
52.000000491738305
20
-23
10
52.000000491738305
20
-44.171573366992106
0
LWPOLYLINE
5
106
100
AcDbEntity
8
0
100
AcDbPolyline
90
4
70
1
43
0.0
10
51.999999999999993
20
14.500000000000096
10
51.999999999999993
20
-14.500000000000096
10
22.999999999999993
20
-14.500000000000064
10
22.999999999999993
20
14.500000000000064
0
LWPOLYLINE
5
107
100
AcDbEntity
8
0
100
AcDbPolyline
90
5
70
1
43
0.0
10
22.999999999999989
20
52.000000491738312
10
44.171573366992121
20
52.000000491738312
10
52.000000491738305
20
44.171573366992106
10
52.000000491738305
20
23
10
22.999999999999989
20
23
0
CIRCLE
5
108
100
AcDbEntity
8
0
100
AcDbCircle
10
67
20
67
30
0
40
12.372368649826937
210
0
220
0
230
1
0
LWPOLYLINE
5
109
100
AcDbEntity
8
0
100
AcDbPolyline
90
4
70
1
43
0.0
10
-14.5
20
14.500000000000007
10
14.5
20
14.500000000000007
10
14.5
20
-14.500000000000007
10
-14.5
20
-14.500000000000007
0
CIRCLE
5
110
100
AcDbEntity
8
0
100
AcDbCircle
10
-67
20
67
30
0
40
12.372368649826937
210
-0
220
0
230
1
0
LWPOLYLINE
5
111
100
AcDbEntity
8
0
100
AcDbPolyline
90
5
70
1
43
0.0
10
-44.171573366992121
20
52.000000491738312
10
-22.999999999999989
20
52.000000491738312
10
-22.999999999999989
20
23
10
-52.000000491738305
20
23
10
-52.000000491738305
20
44.171573366992106
0
LWPOLYLINE
5
112
100
AcDbEntity
8
0
100
AcDbPolyline
90
4
70
1
43
0.0
10
-51.999999999999993
20
-14.500000000000096
10
-51.999999999999993
20
14.500000000000096
10
-22.999999999999993
20
14.500000000000064
10
-22.999999999999993
20
-14.500000000000064
0
LWPOLYLINE
5
113
100
AcDbEntity
8
0
100
AcDbPolyline
90
5
70
1
43
0.0
10
-22.999999999999989
20
-52.000000491738312
10
-44.171573366992121
20
-52.000000491738312
10
-52.000000491738305
20
-44.171573366992106
10
-52.000000491738305
20
-23
10
-22.999999999999989
20
-23
0
CIRCLE
5
114
100
AcDbEntity
8
0
100
AcDbCircle
10
-67
20
-67
30
0
40
12.372368649826937
210
0
220
-0
230
1
0
LINE
5
115
100
AcDbEntity
8
0
100
AcDbLine
10
0
20
14.500000000000007
30
0
11
14.5
21
14.500000000000007
31
0
0
LINE
5
116
100
AcDbEntity
8
0
100
AcDbLine
10
14.5
20
0
30
0
11
0
21
0
31
0
0
LINE
5
117
100
AcDbEntity
8
0
100
AcDbLine
10
0
20
0
30
0
11
0
21
14.500000000000007
31
0
0
LINE
5
118
100
AcDbEntity
8
0
100
AcDbLine
10
14.5
20
14.500000000000007
30
0
11
14.5
21
0
31
0
0
LINE
5
119
100
AcDbEntity
8
0
100
AcDbLine
10
22.999999999999993
20
0
30
0
11
22.999999999999993
21
14.500000000000064
31
0
0
LINE
5
120
100
AcDbEntity
8
0
100
AcDbLine
10
22.999999999999993
20
14.500000000000064
30
0
11
51.999999999999993
21
14.500000000000096
31
0
0
LINE
5
121
100
AcDbEntity
8
0
100
AcDbLine
10
51.999999999999993
20
14.500000000000096
30
0
11
51.999999999999993
21
0
31
0
0
LINE
5
122
100
AcDbEntity
8
0
100
AcDbLine
10
22.999999999999993
20
0
30
0
11
51.999999999999993
21
0
31
0
0
LWPOLYLINE
5
123
100
AcDbEntity
8
0
100
AcDbPolyline
90
4
70
1
43
0.0
10
0
20
23
10
14.500000000000014
20
23
10
14.500000000000007
20
52
10
0
20
52
0
LINE
5
124
100
AcDbEntity
8
0
100
AcDbLine
10
22.999999999999989
20
52.000000491738312
30
0
11
22.999999999999989
21
23
31
0
0
LINE
5
125
100
AcDbEntity
8
0
100
AcDbLine
10
22.999999999999989
20
23
30
0
11
52.000000491738305
21
23
31
0
0
LINE
5
126
100
AcDbEntity
8
0
100
AcDbLine
10
52.000000491738305
20
23
30
0
11
52.000000491738305
21
44.171573366992106
31
0
0
LINE
5
127
100
AcDbEntity
8
0
100
AcDbLine
10
52.000000491738305
20
44.171573366992106
30
0
11
44.171573366992121
21
52.000000491738312
31
0
0
LINE
5
128
100
AcDbEntity
8
0
100
AcDbLine
10
44.171573366992121
20
52.000000491738312
30
0
11
22.999999999999989
21
52.000000491738312
31
0
0
LINE
5
129
100
AcDbEntity
8
0
100
AcDbLine
10
5.2000000000000002
20
23
30
0
11
5.2000000000000002
21
14.500000000000007
31
0
0
LINE
5
130
100
AcDbEntity
8
0
100
AcDbLine
10
5
20
19.299999999999997
30
0
11
5
21
23.299999999999997
31
0
0
LINE
5
131
100
AcDbEntity
8
0
100
AcDbLine
10
32.300000245869136
20
23
30
0
11
32.30000024586915
21
14.500000000000073
31
0
0
LINE
5
132
100
AcDbEntity
8
0
100
AcDbLine
10
32.500000245869145
20
23.29999999999999
30
0
11
32.500000245869145
21
19.29999999999999
31
0
0
LINE
5
133
100
AcDbEntity
8
0
100
AcDbLine
10
14.5
20
5.1999999999999993
30
0
11
22.999999999999993
21
5.1999999999999993
31
0
0
LINE
5
134
100
AcDbEntity
8
0
100
AcDbLine
10
18.20000000000001
20
4.9999999999999991
30
0
11
14.20000000000001
21
4.9999999999999991
31
0
0
LINE
5
135
100
AcDbEntity
8
0
100
AcDbLine
10
14.500000000000011
20
32.299999999999997
30
0
11
22.999999999999989
21
32.299999999999997
31
0
0
LINE
5
136
100
AcDbEntity
8
0
100
AcDbLine
10
14.20000000000001
20
32.5
30
0
11
18.20000000000001
21
32.5
31
0
0
LINE
5
137
100
AcDbEntity
8
0
100
AcDbLine
10
14.500000000000011
20
42.699999999999996
30
0
11
22.999999999999989
21
42.699999999999996
31
0
0
LINE
5
138
100
AcDbEntity
8
0
100
AcDbLine
10
18.20000000000001
20
42.5
30
0
11
14.20000000000001
21
42.5
31
0
0
LINE
5
139
100
AcDbEntity
8
0
100
AcDbLine
10
42.700000245869134
20
23.000000342726704
30
0
11
42.700000245869141
21
14.500000000000083
31
0
0
LINE
5
140
100
AcDbEntity
8
0
100
AcDbLine
10
42.500000245869145
20
19.29999999999999
30
0
11
42.500000245869145
21
23.29999999999999
31
0
0
LINE
5
141
100
AcDbEntity
8
0
100
AcDbLine
10
0
20
60.499999999999986
30
0
11
47.692389138901731
21
60.499999999999986
31
0
0
LINE
5
142
100
AcDbEntity
8
0
100
AcDbLine
10
47.692389138901731
20
60.499999999999986
30
0
11
60.500000491738305
21
47.692388647163412
31
0
0
LINE
5
143
100
AcDbEntity
8
0
100
AcDbLine
10
60.500000491738305
20
47.692388647163412
30
0
11
60.500000491738305
21
0
31
0
0
LINE
5
144
100
AcDbEntity
8
0
100
AcDbLine
10
60.500000491738305
20
0
30
0
11
51.999999999999993
21
0
31
0
0
LINE
5
145
100
AcDbEntity
8
0
100
AcDbLine
10
0
20
60.499999999999986
30
0
11
0
21
52
31
0
0
LINE
5
146
100
AcDbEntity
8
0
100
AcDbLine
10
5.2000000000000002
20
60.499999999999986
30
0
11
5.1999999999999993
21
52
31
0
0
LINE
5
147
100
AcDbEntity
8
0
100
AcDbLine
10
5
20
51.700000000000003
30
0
11
5
21
55.700000000000003
31
0
0
LINE
5
148
100
AcDbEntity
8
0
100
AcDbLine
10
32.300000245869128
20
60.499999999999986
30
0
11
32.300000245869128
21
52.000000491738312
31
0
0
LINE
5
149
100
AcDbEntity
8
0
100
AcDbLine
10
42.700000245869134
20
60.499999999999986
30
0
11
42.700000245869134
21
52.000000491738312
31
0
0
LINE
5
150
100
AcDbEntity
8
0
100
AcDbLine
10
52.000000491738305
20
42.700000245869163
30
0
11
60.500000491738305
21
42.700000245869163
31
0
0
LINE
5
151
100
AcDbEntity
8
0
100
AcDbLine
10
52.000000491738305
20
32.300000245869164
30
0
11
60.500000491738305
21
32.300000245869164
31
0
0
LINE
5
152
100
AcDbEntity
8
0
100
AcDbLine
10
51.999999999999993
20
5.1999999999999735
30
0
11
60.500000491738305
21
5.1999999999999735
31
0
0
LINE
5
153
100
AcDbEntity
8
0
100
AcDbLine
10
32.500000245869131
20
55.700000491738315
30
0
11
32.500000245869131
21
51.700000491738308
31
0
0
LINE
5
154
100
AcDbEntity
8
0
100
AcDbLine
10
42.500000245869138
20
51.700000491738308
30
0
11
42.500000245869138
21
55.700000491738315
31
0
0
LINE
5
155
100
AcDbEntity
8
0
100
AcDbLine
10
55.700000491738308
20
42.500000245869167
30
0
11
51.700000491738301
21
42.500000245869167
31
0
0
LINE
5
156
100
AcDbEntity
8
0
100
AcDbLine
10
51.700000491738301
20
32.500000245869167
30
0
11
55.700000491738308
21
32.500000245869167
31
0
0
LINE
5
157
100
AcDbEntity
8
0
100
AcDbLine
10
55.699999999999996
20
4.9999999999999742
30
0
11
51.699999999999989
21
4.9999999999999742
31
0
0
LINE
5
158
100
AcDbEntity
8
0
100
AcDbLine
10
1.75
20
0
30
0
11
22.5
21
0
31
0
0
CIRCLE
5
159
100
AcDbEntity
8
0
100
AcDbCircle
10
18.750000000000004
20
18.750000000000032
30
0
40
2.5
210
0
220
0
230
1
0
LINE
5
160
100
AcDbEntity
8
0
100
AcDbLine
10
61.799999999999301
20
55.773446387817273
30
0
11
61.799999999999301
21
48.992388155424401
31
0
0
LINE
5
161
100
AcDbEntity
8
0
100
AcDbLine
10
61.799999999999301
20
48.992388155424401
30
0
11
60.500000491738305
21
47.692388647163412
31
0
0
LINE
5
162
100
AcDbEntity
8
0
100
AcDbLine
10
55.773446387813159
20
61.800000000008183
30
0
11
49.03857854683794
21
61.800000000008183
31
0
0
LINE
5
163
100
AcDbEntity
8
0
100
AcDbLine
10
49.03857854683794
20
61.800000000008183
30
0
11
47.692389138901731
21
60.499999999999986
31
0
0
CIRCLE
5
164
100
AcDbEntity
8
0
100
AcDbCircle
10
67
20
67
30
0
40
12.372368649826935
210
0
220
0
230
1
0
LINE
5
165
100
AcDbEntity
8
0
100
AcDbLine
10
78.226553612187558
20
72.199999999990268
30
0
11
83.550000000037272
21
72.199999999990268
31
0
0
LINE
5
166
100
AcDbEntity
8
0
100
AcDbLine
10
83.550000000037272
20
72.199999999990268
30
0
11
72.200001072882401
21
83.549998927145111
31
0
0
LINE
5
167
100
AcDbEntity
8
0
100
AcDbLine
10
72.200001072882401
20
78.226553115237209
30
0
11
72.200001072882401
21
83.549998927145111
31
0
0
LINE
5
168
100
AcDbEntity
8
0
100
AcDbLine
10
61.799998927105207
20
78.226553115231482
30
0
11
61.799998927105591
21
84.961420380267697
31
0
0
LINE
5
169
100
AcDbEntity
8
0
100
AcDbLine
10
61.799998927105591
20
84.961420380267697
30
0
11
59.928575425580505
21
84.961420380267924
31
0
0
LINE
5
170
100
AcDbEntity
8
0
100
AcDbLine
10
59.928575425580505
20
84.961420380267924
30
0
11
49.038578546845379
21
74.071423501532763
31
0
0
LINE
5
171
100
AcDbEntity
8
0
100
AcDbLine
10
49.038578546845379
20
74.071423501532763
30
0
11
49.038578546845372
21
72.20000000000752
31
0
0
LINE
5
172
100
AcDbEntity
8
0
100
AcDbLine
10
49.038578546845372
20
72.20000000000752
30
0
11
55.773446387820584
21
72.200000000007833
31
0
0
LINE
5
173
100
AcDbEntity
8
0
100
AcDbLine
10
78.226553612178066
20
61.799999999989232
30
0
11
85.007611844570931
21
61.799999999989282
31
0
0
LINE
5
174
100
AcDbEntity
8
0
100
AcDbLine
10
85.007611844570931
20
61.799999999989282
30
0
11
85.007611844570931
21
59.961523064335161
31
0
0
LINE
5
175
100
AcDbEntity
8
0
100
AcDbLine
10
85.007611844570931
20
59.961523064335161
30
0
11
74.038476935658935
21
48.992388155423143
31
0
0
LINE
5
176
100
AcDbEntity
8
0
100
AcDbLine
10
74.038476935658935
20
48.992388155423143
30
0
11
72.199999999997928
21
48.992388155423129
31
0
0
LINE
5
177
100
AcDbEntity
8
0
100
AcDbLine
10
72.199999999997928
20
48.992388155423129
30
0
11
72.199999999997956
21
55.773446387816001
31
0
0
ENDSEC
0
SECTION
2
OBJECTS
0
DICTIONARY
5
C
100
AcDbDictionary
3
ACAD_GROUP
350
D
3
ACAD_MLINESTYLE
350
17
0
DICTIONARY
5
D
100
AcDbDictionary
0
DICTIONARY
5
1A
330
C
100
AcDbDictionary
0
DICTIONARY
5
17
100
AcDbDictionary
0
ENDSEC
0
EOF
